<?xml version="1.0" encoding="UTF-8" standalone="no"?>
<svg viewBox="0 0 300.79999 151.36195" xmlns="http://www.w3.org/2000/svg" xmlns:xlink="http://www.w3.org/1999/xlink">
<defs>
<filter id="filter31506">
<feGaussianBlur stdDeviation="1.0291"/>
</filter>
<filter id="filter4811">
<feGaussianBlur stdDeviation=".2745"/>
</filter>
<filter id="filter31385">
<feGaussianBlur stdDeviation=".2771"/>
</filter>
<filter id="filter4103"></filter>
<filter height="1.21594" id="filter4189" width="1.27759" x="-.1388" y="-.10797"></filter>
<linearGradient id="linearGradient31281">
<stop offset="0" stop-color="#f5cf9d"/>
<stop offset="1" stop-color="#efb466"/>
</linearGradient>
<linearGradient gradientUnits="userSpaceOnUse" id="linearGradient30261" x1="-1623.33461" x2="-1618.63672" y1="-886.90918" y2="-892.6934">
<stop offset="0"/>
<stop offset="1" stop-color="#b3b3b3"/>
</linearGradient>
<linearGradient gradientUnits="userSpaceOnUse" id="linearGradient30258" x1="-1625.14102" x2="-1622.49162" y1="-885.5882" y2="-888.11593">
<stop offset="0"/>
<stop offset="1" stop-color="#4d4d4d"/>
</linearGradient>
<linearGradient id="linearGradient4222">
<stop offset="0" stop-color="#666"/>
<stop offset="1"/>
</linearGradient>
<linearGradient id="linearGradient6058">
<stop offset="0" stop-color="#eee"/>
<stop offset="1"/>
</linearGradient>
<linearGradient id="linearGradient4248">
<stop offset="0" stop-color="#fff"/>
<stop offset="1"/>
</linearGradient>
<linearGradient id="linearGradient4284">
<stop offset="0" stop-color="#dc0000"/>
<stop offset="1"/>
</linearGradient>
<linearGradient gradientUnits="userSpaceOnUse" id="linearGradient30195" x1="-1583.8934" x2="-1583.6559" y1="-834.18189" y2="-845.81688">
<stop offset="0" stop-color="#ccc"/>
<stop offset=".4163" stop-color="#808080"/>
<stop offset="1"/>
</linearGradient>
<radialGradient cx="-1590.1113" cy="-904.04553" gradientTransform="matrix(-.71515,.45786,-.39519,-.61725,-3094.7172,-734.40587)" gradientUnits="userSpaceOnUse" id="radialGradient30341" r="14.75155">
<stop offset="0" stop-color="#0044d8"/>
<stop offset="1" stop-color="#000060"/>
</radialGradient>
<radialGradient cx="-9739.752" cy="-7041.9805" gradientTransform="matrix(-.01573,-.08288,.21017,-.03988,-132.24724,-1978.7377)" gradientUnits="userSpaceOnUse" id="radialGradient30245" r="1212.8619">
<stop offset="0" stop-color="#ff8080"/>
<stop offset=".1482" stop-color="#f00"/>
<stop offset="1" stop-color="#2b0000"/>
</radialGradient>
<radialGradient cx="161.09946" cy="307.87552" gradientTransform="matrix(12.37512,.52837,-.06402,1.50024,-3535.7083,-1392.6422)" gradientUnits="userSpaceOnUse" id="radialGradient30242" r="10.6511">
<stop offset="0" stop-color="#980101"/>
<stop offset="1"/>
</radialGradient>
<radialGradient cx="-13393.092" cy="-8873.1924" gradientTransform="matrix(1.34526,-.62558,.37949,.71724,7964.0766,-10907.036)" gradientUnits="userSpaceOnUse" id="radialGradient29150" r="194.82228">
<stop offset="0" stop-color="#eee"/>
<stop offset="1" stop-color="#aaa"/>
</radialGradient>
<radialGradient cx="-13591.438" cy="-8579.6055" gradientTransform="matrix(-.88326,-.49164,.91911,-1.45126,-17435.549,-28193.744)" gradientUnits="userSpaceOnUse" id="radialGradient29152" r="194.82228">
<stop offset="0" stop-color="#eee"/>
<stop offset="1" stop-color="#888"/>
</radialGradient>
<radialGradient cx="2156.3743" cy="-2157.7146" gradientTransform="matrix(.58201,-.45608,1.60123,2.04332,4356.3499,3234.657)" gradientUnits="userSpaceOnUse" id="radialGradient29160" r=".5421">
<stop offset="0"/>
<stop offset=".4402" stop-color="#eee"/>
<stop offset="1" stop-color="#888"/>
</radialGradient>
<radialGradient cx="2156.3389" cy="-2157.7769" gradientTransform="matrix(2.32148,1.63614,-1.10286,1.56483,-5229.2671,-2309.343)" gradientUnits="userSpaceOnUse" id="radialGradient29162" r=".36627">
<stop offset="0" stop-color="#eee"/>
<stop offset=".5" stop-color="#909090"/>
<stop offset="1" stop-color="#333"/>
</radialGradient>
<radialGradient cx="2156.3743" cy="-2157.7146" gradientTransform="matrix(-4.22591,-2.93291,-10.29703,14.83646,-14811.549,37478.515)" gradientUnits="userSpaceOnUse" id="radialGradient30215" r=".5421">
<stop offset="0"/>
<stop offset=".4402" stop-color="#c1c1c1"/>
<stop offset="1" stop-color="#6e6e6e"/>
</radialGradient>
<radialGradient cx="2156.3389" cy="-2157.7769" gradientTransform="matrix(-15.46331,12.29884,8.29018,10.42334,49526.542,-4888.7623)" gradientUnits="userSpaceOnUse" id="radialGradient30212" r=".36627">
<stop offset="0" stop-color="#d6d6d6"/>
<stop offset=".5" stop-color="#828282"/>
<stop offset="1" stop-color="#2e2e2e"/>
</radialGradient>
<radialGradient cx="166.74696" cy="308.72125" gradientTransform="matrix(-23.04291,17.19897,-14.30741,-19.16781,6772.5938,2181.4213)" gradientUnits="userSpaceOnUse" id="radialGradient30198" r="2.20846">
<stop offset="0" stop-color="#ff0e0e"/>
<stop offset="1"/>
</radialGradient>
<radialGradient cx="-1597.4108" cy="-944.09808" gradientTransform="matrix(-.96012,.94852,-.74688,-.75602,-3841.5689,-151.86537)" gradientUnits="userSpaceOnUse" id="radialGradient30317" r="20.57072">
<stop offset="0" stop-color="#784421"/>
<stop offset="1"/>
</radialGradient>
<radialGradient cx="-1601.1495" cy="-914.3515" gradientTransform="matrix(.96361,-.57978,.94766,1.57504,807.05968,-402.66592)" gradientUnits="userSpaceOnUse" id="radialGradient31289" r="4.45411" xlink:href="#linearGradient31281"/>
<radialGradient cx="-1596.8579" cy="-932.67456" gradientTransform="matrix(-.95115,-1.82415,2.03928,-1.06332,-1214.2636,-4840.7816)" gradientUnits="userSpaceOnUse" id="radialGradient31287" r="9.78184" xlink:href="#linearGradient31281"/>
<radialGradient cx="2144.2217" cy="-2159.572" gradientTransform="matrix(-1.71801,3.92577,-21.7462,-9.51667,-44841.984,-29862.827)" gradientUnits="userSpaceOnUse" id="radialGradient30255" r=".37967" xlink:href="#linearGradient4222"/>
<radialGradient cx="2144.2217" cy="-2159.572" gradientTransform="matrix(3.92577,1.71801,-9.51667,21.7462,-30538.935,42380.361)" gradientUnits="userSpaceOnUse" id="radialGradient30252" r=".37967" xlink:href="#linearGradient4222"/>
<radialGradient cx="-1604.6112" cy="-882.30109" gradientTransform="matrix(1.13824,-.45066,.22824,.57648,424.96881,-1098.2603)" gradientUnits="userSpaceOnUse" id="radialGradient31353" r="22.75907" xlink:href="#linearGradient31281"/>
<radialGradient cx="-13317.456" cy="-8948.9043" gradientTransform="matrix(-.9316,.49311,-.40216,-.66778,-29484.591,-8234.0887)" gradientUnits="userSpaceOnUse" id="radialGradient29148" r="194.82228" xlink:href="#linearGradient6058"/>
<radialGradient cx="170.87646" cy="313.18573" gradientTransform="matrix(-2.53384,-11.55008,25.27536,-5.54487,-8926.2439,2865.937)" gradientUnits="userSpaceOnUse" id="radialGradient30209" r="1.08431" xlink:href="#linearGradient4248"/>
<radialGradient cx="170.07961" cy="313.8345" gradientTransform="matrix(.77515,-10.19461,-28.28136,-2.15038,7021.9957,1567.7712)" gradientUnits="userSpaceOnUse" id="radialGradient30206" r="1.08431" xlink:href="#linearGradient4248"/>
<radialGradient cx="2138.9204" cy="-2156.5662" gradientTransform="matrix(-13.25391,15.07274,-15.16443,-13.33457,-6016.0745,-61843.581)" gradientUnits="userSpaceOnUse" id="radialGradient30202" r="2.20448" xlink:href="#linearGradient4284"/>
<radialGradient cx="-1601.2081" cy="-925.18597" gradientTransform="matrix(.21739,.50154,-1.25496,.54395,-2413.0618,380.36983)" gradientUnits="userSpaceOnUse" id="radialGradient31345" r="3.73315" xlink:href="#linearGradient4284"/>
<radialGradient cx="-1647.4219" cy="-919.10046" gradientTransform="matrix(1.23459,-.56274,.22135,.48563,637.43891,-1405.761)" gradientUnits="userSpaceOnUse" id="radialGradient31342" r="3.7214" xlink:href="#linearGradient4284"/>
<radialGradient cx="2147.7324" cy="-2160.2671" gradientTransform="matrix(22.6605,7.96553,-7.05557,20.07182,-65456.88,25339.745)" gradientUnits="userSpaceOnUse" id="radialGradient31351" r="2.6974" xlink:href="#linearGradient6058"/>
</defs>
<g transform="translate(1727.91815,953.90692)">
<path d="m-1607.3044-951.03084c-3.0595-.02-6.0702.7753-8.7215,2.3017-1.6521.9748-3.773,1.8343-4.3574,3.85161-2.8971,6.38733-3.5143,13.92323-.912,20.50478 1.053,2.63389 2.3654,5.237 4.1951,7.40955 .8915.35543 1.9177-.23924 2.8548-.19068 1.684-.23318 3.3926-.35103 5.0505-.73551-.019,2.4707.1578,4.97165-.01,7.4259-1.7625-.0887-3.654-.29656-5.3447.26696-2.1756.92193-3.3166,3.5659-2.5225,5.79144 1.1542,4.15522 2.8613,8.2177 2.942,12.58535 .2378,6.5945-.5977,13.1831-1.2915,19.71898-.1194,2.492-2.3398,3.99884-3.7003,5.85369-.4675.66097-1.2464,1.28556-1.2845,2.14778 .6327.4174 1.6133-.12288 2.3482-.0545 4.703-.55965 9.465-.80999 14.1544-1.47102 .5969-.7457.588-1.92312.9737-2.81083 1.0411-3.50084 1.8818-7.09193 3.0852-10.52637 1.5008-.69716 3.0685-1.3474 4.6201-1.86873 .5142.53672.5817,1.69643 1.3512,1.88508 4.3111-2.10262 8.0901-5.05378 11.742-8.09988 1.8596-1.38208 3.6632-2.82595 5.2509-4.50726 .3848-.10654 1.437-.0262.8826.57751-.8988,2.38739-2.6096,4.56998-2.8603,7.16983 .049,1.36549 1.9512,2.09051 3.0347,1.41653 1.612-.95601 2.0306-3.00059 2.9311-4.522 .7535-1.36529 1.248-3.02479 2.1504-4.2117 1.8406-.43524 4.1836-1.61447 4.0823-3.81351-.4314-1.03371.9585-1.22579 1.3021-1.99949 .6796-.82238.84-2.0597 0-2.84396-.4464-.54537-1.1362-1.14747-.6755-1.90142 .4397-1.23251-.4529-2.56267-1.738-2.66962-1.5274-.13618-2.2371,1.44414-2.8767,2.54431-1.4339.19665-2.934.72758-4.097,1.59088-1.8604,2.24149-3.9466,4.27957-6.1453,6.23096-2.0926,1.72643-3.9295,3.93828-6.6144,4.75806-1.6889.62652-3.4178,1.40747-5.1159,1.82515-.6654-1.99571-.5572-4.16607-.7028-6.25454 1.3553-1.15907 2.8447-2.9145 2.1412-4.82166-1.1494-2.11056-3.3495-3.50496-4.048-5.9004-.7584-1.69545-.9665-4.0892-2.8549-4.96331-1.1585-.27332-2.4938-.2647-3.3398-1.26398-1.6907-1.74058-2.0486-4.25284-1.9613-6.58688 1.0866-.0799 2.3107.31054 3.3157-.0571 1.7381-1.22594 2.8405-3.0689 3.7833-4.92798 5.1603-1.93127 10.1266-4.57049 14.2525-8.24312 .3324-.69065-.8572-.69688-1.2258-1.00247-3.1753-1.88529-5.1562-5.20328-7.248-8.15374-2.861-4.04928-5.7356-8.69669-10.6494-10.42459-1.9636-.6843-4.0659-1.0923-6.151-1.0297zm10.0465,63.40076c.02.53472.4292,1.20379.3324,1.6835-.3411.18526-.913.42091-1.1768.39772 .2059-.8812.4726-1.74752.7191-2.62604 .042.18161.084.36322.1253.54482z" filter="url(#filter31506)" opacity=".3498"/>
<path class="fil39" d="m-1592.7444-880.44631c8.5982-4.57121 12.8931-8.78116 19.0228-16.64358 2.1098.59604 3.2143.46969 5.4058.53166 1.3858.0391 2.5619-.42642 3.6289-1.31158 .7156-.59367 1.3164-1.48545 1.1395-2.39831-.2221-1.14529-.9432-1.38433-1.6402-2.31976-.4245.99913-.8174,2.32382-1.7557,2.41461-1.2739.12318-2.2567.10129-2.5949-1.40174-.1692-.75235.2775-1.3666.6078-2.08197-1.2473.73373-3.2516.93865-4.3771,1.84813-.722.58336-1.1372,1.46739-1.7058,2.20103-6.3648,5.92464-8.7273,8.25923-15.4137,12.25414-3.1732-3.72352.03-9.25381-3.1436-12.97725-.9538,1.59575-3.0138,2.40383-4.1878,3.11911 1.7444,5.34052 2.0211,11.74659 5.014,16.76551z" fill="#cda773" fill-rule="evenodd"/>
<path class="fil39" d="m-1607.5575-920.00058c-.024,2.65155.044,5.46977.02,8.1214 1.9098,3.45405 4.3674,5.94113 6.8036,8.1527 .9381.85167 1.8638.93329 1.9884-.51061 .1926-2.23181-.1516-4.51247.091-6.71413-3.1412-1.64827-3.9477-5.14665-3.4669-8.63012-1.6785-1.19199-3.685-2.65728-5.3635-3.84927-.024,1.14332-.049,2.28663-.073,3.43003z" fill="url(#radialGradient31289)" fill-rule="evenodd"/>
<path class="fil5" d="m-1602.4877-867.23744c-5.5807.42866-11.1727.97615-16.7726,1.60402l.0009.0005c.9844-1.81142 2.2328-3.15862 4.0029-4.95563 1.1446-1.162 1.373-3.11725 1.4961-4.74364 .5618-7.42518 2.0532-15.03171.5839-22.33167-.671-3.33326-1.9723-5.87925-2.6273-8.90349-.4963-2.29139.7699-4.88359 3.3745-5.41921 1.7559-.36109 3.3946-.0257 4.8921.0395 1.8992,3.37292 4.4068,5.97677 6.8036,8.1527 .9381.85167 1.8639.93329 1.9884-.51061 .1926-2.23182-.1516-4.51247.091-6.71413l-.3205-.17971 .043.004c.8281.0855 2.3179-.0683 3.099.9401 1.4092,1.81913 1.2319,3.54361 2.3531,5.58121 1.7061,3.10078 4.4605,3.46823 3.5382,6.69356-.5967,2.08611-3.4276,3.01629-4.7055,4.75962-.3351.45718-.8124.95001-.9848,1.53199" fill="url(#radialGradient30341)" fill-rule="evenodd"/>
<path class="fil42" d="m-1598.8556-919.23103c3.8655-2.39538 6.7904-11.78023 4.2177-18.1528-4.7071-11.65936-13.3955-11.16596-18.5917-7.86876 .5369,1.84732-.4525,4.27155.7144,13.89478 .383,3.15765 1.4889,5.64554 2.6225,7.38846 2.2702,3.49019 5.8816,5.13584 10.4773,4.89992 .2478-.0127.3481-.0303.5598-.1616z" fill="url(#radialGradient31287)" fill-rule="evenodd"/>
<path class="fil53" d="m-1603.8199-937.27239c.8568-2.78995 2.917-4.3589 6.8317-4.55451-2.2706-.84167-7.1282.48128-6.8317,4.55451z" fill="#5e4032" fill-rule="evenodd"/>
<path class="fil53 str0" d="m-1607.1248-936.21036c-2.0792-1.23166-3.8644-1.31999-6.6232-.12153 .9098-1.32475 5.2612-2.61139 6.6232.12153z" fill="#5e4032" fill-rule="evenodd" stroke="#23201d" stroke-width=".06244"/>
<path class="fil54" d="m-1612.521-931.41075c2.5786.15627 3.8096.0719 5.8767-1.76685-1.9351-.97008-4.5932-.86044-6.0188.52987 .043.39842.091.81078.1421,1.23698z" fill="#fffff3" fill-rule="evenodd"/>
<path class="fil54" d="m-1601.4746-934.79186c3.324-.48578 4.6346-.63599 6.5231-3.20985-2.6815-.69589-6.1219.51167-6.5231,3.20985z" fill="#fffff3" fill-rule="evenodd"/>
<path class="fil55" d="m3.339,0a3.339,3.0555 0 1,0 -6.678,0 3.339,3.0555 0 1,0 6.678,0" fill="#7e929b" fill-rule="evenodd" transform="matrix(.28666,.09462,-.09005,.30121,-1608.9547,-932.7514)"/>
<path class="fil56" d="m-1607.2535-933.55611c-2.457-.0382-3.5994-.10735-5.7934,1.02581-.1468.0758-.25.091-.25.091 2.1312-2.13209 5.1271-1.54412 6.0434-1.11677z" fill="#150704" fill-rule="evenodd"/>
<path class="fil55" d="m3.339,0a3.339,3.0555 0 1,0 -6.678,0 3.339,3.0555 0 1,0 6.678,0" fill="#7e929b" fill-rule="evenodd" transform="matrix(.28666,.09462,-.09005,.30121,-1596.8348,-937.31664)"/>
<path class="fil56" d="m-1595.2253-938.55649c-2.6678.70417-3.9237.97598-5.9518,2.86665-.1356.12645-.2426.17414-.2426.17414 1.657-2.95147 5.0742-3.22476 6.1944-3.04079z" fill="#150704" fill-rule="evenodd"/>
<path class="fil57" d="m-1600.161-929.27768c.2474-.20102.4028-.37556.1752-.60878-1.9258-1.97311-3.2669-2.63081-3.4511-5.55844-.2926,2.57485 1.0349,3.49724 2.5394,5.42224 .2777.35532.055.54085-.2005.90674-.2357.33705-.5579.48234-.5927.60821-.1139.41129.9436-.29378 1.5297-.76997z" fill="#c4ac8d" fill-rule="evenodd"/>
<path d="m2139.3204-2158.7487c-.9656.1699-1.9357.3379-2.8998.5009-.2646-.3149-.5498-.6573-.9281-.8331-.321-.07-.8244.1984-.6469.5786 .078.1598.1976.3309.2491.4835-.5641.093-1.0712-.219-1.6073-.3536-.3626-.1149-.7052-.2688-1.0674-.3629-.2068-.085-.554-.1883-.6978.06-.1262.3825-.2641.7628-.3992,1.1398-.022.1691-.2845.092-.4115.1467-.7903.1047-1.7074.2893-2.1532,1.0299-.1636.2152-.2408.4881-.3417.7253-.354.2105-.4929.8244-.1111,1.0795 .4246.3404 1.0264.2046 1.488.025 .1691-.025.3412-.015.5116-.017 .043.8767.7491,1.7405 1.6461,1.8162 .447.03.9198.01 1.2952-.2652 .4757-.2902.8021-.7986.892-1.3461 .2138.2209.5731.077.8489.1352 2.9527.09 5.9063.1769 8.8588.2586 .1458.038.2483-.2409.3361-.07 .2544.696.9005,1.2478 1.6461,1.3193 .7686.071 1.5435-.3397 1.8979-1.0273 .041-.2236.2175-.2508.4191-.2141 .7588-.01 1.5694.2341 2.2851-.1221 .5286-.2111.6432-.9392.2906-1.3554-.088-.119-.1974-.2256-.3255-.3001 .3548-.9266.6498-1.9947.2666-2.96-.3986-.9191-1.4742-1.3281-2.4202-1.2965-1.1066-.053-2.2.1326-3.2909.288-1.7791.3289-3.6311.575-5.6306.9369z" filter="url(#filter4811)" opacity=".7407" transform="matrix(12.41516,0,0,12.41516,-28139.752,25914.861)"/>
<g transform="matrix(12.38481,.86758,-.86758,12.38481,-30008.084,23981.614)">
<path d="m2140.2442-2157.2282-3.2503-.7989c0,.059.02.1114-.052.2139 .013.067.023.1353-.054.2248 .01.08.034.1635-.069.2215 0,.068.031.134-.052.2133 .025.071.02.1346-.057.1827 .01.094 0,.1809-.06.2521 .035.095-.017.1786-.071.2624z"/>
<path d="m2136.9392-2157.8166 .1019.062 2.6404.6413 .074-.019-2.6551-.6753z" fill="#666"/>
<path d="m2136.8777-2157.6 .1019.062 2.2812.5171 .066-.019-2.2882-.551z" fill="#666"/>
<path d="m2136.8177-2157.3686 .1019.062 1.828.392 .085-.019-1.8543-.426z" fill="#4d4d4d"/>
<path d="m2136.757-2157.1496 .1019.062 1.367.2839 .082-.019-1.3894-.3179z" fill="#4d4d4d"/>
<path d="m2136.71-2156.959 .1019.062 .9004.1952 .097-.015-.9385-.2332z" fill="#4d4d4d"/>
<path d="m2136.6467-2156.7305 .1019.062 .4714.074 .097-.023-.5094-.1036z" fill="#4d4d4d"/>
<path d="m2136.9873-2158.0314 .1019.062 3.1418.7398 .058-.012-3.1409-.7777z" fill="#666"/>
</g>
<path d="m-1625.7435-878.23207c0,0-1.4575-6.15171-4.8443-10.54295-.745-.95597-.9933-2.65436.2979-3.62399 .8939-.67042 2.9263-1.62514 2.9263-1.62514 1.4103-.62076 2.8666.45936 4.061,1.21668 4.5687,2.89398 10.8533,12.06009 10.8533,12.06009z" fill="url(#linearGradient30261)"/>
<path d="m-1625.1525-878.13027c0,0-2.7375-7.59807-5.0107-10.47715-.5091-.62076-.6705-1.74185.1986-2.3775 .5959-.43453 1.9579-1.0677 1.9579-1.0677 .9435-.4097 1.9467.26071 2.7176.79457 3.9605,2.7574 8.5417,11.56968 8.5417,11.56968z" fill="url(#linearGradient30258)"/>
<path d="m-1567.4829-897.45372c-1.018-.45936-2.7449-1.10495-3.4787.58351-.7325,1.6835.5835,2.87411 1.7878,3.44273l9.3511,4.22363c1.8821.84423 3.141,1.08012 3.8487-.48419 .7077-1.56679-.6704-2.67174-1.9864-3.23787-.1242-.12415-7.2132-3.46755-9.5212-4.52657z" fill="url(#radialGradient30255)"/>
<path d="m-1576.9798-887.46674c-.4594,1.01804-1.105,2.74499.5835,3.47872 1.6835.7325 2.8741-.58351 3.4427-1.78778l7.6415-16.02418c.8443-1.88213 1.0801-3.14103-.4842-3.84869-1.5668-.70767-2.6717.67041-3.2378,1.98642-.1242.12415-6.8855,13.88629-7.9445,16.19426z" fill="url(#radialGradient30252)"/>
<path d="m-1710.9003-842.42428 258.4377,8.7291c0,0 52.3572-80.92572-31.9393-70.56651-61.2054,7.52234-115.785,20.55453-202.6824,32.40232-27.949,3.81021-23.816,29.43509-23.816,29.43509z" fill="url(#radialGradient30245)"/>
<path class="fil39" d="m-1606.7837-876.1757c8.5982-4.57121 24.9207-8.28002 31.0504-16.14244 2.1098.59604 3.2143.46969 5.4058.53166 1.3858.0391 2.5619-.42642 3.6289-1.31158 .7156-.59367 1.3164-1.48545 1.1395-2.39831-.2221-1.14529-.7378-1.30218-1.4348-2.23761-.4245.99913-1.0228,2.24167-1.9611,2.33246-1.2739.12318-2.2567.10129-2.5949-1.40174-.1692-.75235.1954-1.57196.5257-2.28733-1.2473.73373-3.1695,1.14401-4.295,2.05349-.722.58336-1.1372,1.46739-1.7058,2.20103-6.3648,5.92464-19.0009,7.50751-25.6873,11.50242-3.1732-3.72352-.9726-9.50438-4.1459-13.22782-.9538,1.59575-3.0138,2.40383-4.1878,3.11911 1.7444,5.34052 1.2694,12.24774 4.2623,17.26666z" fill-rule="evenodd" filter="url(#filter31385)" opacity=".1852"/>
<path class="fil39" d="m-1606.6123-877.20627c8.5982-4.57121 24.9207-8.28002 31.0504-16.14244 2.1098.59604 3.2143.46969 5.4058.53166 1.3858.0391 2.5619-.42642 3.6289-1.31158 .7156-.59367 1.3164-1.48545 1.1395-2.39831-.2221-1.14529-.7378-1.30218-1.4348-2.23761-.4245.99913-1.0228,2.24167-1.9611,2.33246-1.2739.12318-2.2567.10129-2.5949-1.40174-.1692-.75235.1954-1.57196.5257-2.28733-1.2473.73373-3.1695,1.14401-4.295,2.05349-.722.58336-1.1372,1.46739-1.7058,2.20103-6.3648,5.92464-19.0009,7.50751-25.6873,11.50242-3.1732-3.72352-.9726-9.50438-4.1459-13.22782-.9538,1.59575-3.0138,2.40383-4.1878,3.11911 1.7444,5.34052 1.2694,12.24774 4.2623,17.26666z" fill="url(#radialGradient31353)" fill-rule="evenodd"/>
<path d="m-1710.6476-842.4954 257.8874,8.87311 6.0107-10.01779-264.4703-3.57767z" fill="url(#radialGradient30242)" opacity=".2469"/>
<path d="m-1631.6692-880.02482c0,0-1.9343,12.10354.9808,16.41035 3.0554,4.5154 9.6863,7.93701 15.0496,8.90912 13.8976,2.52152 35.5844,6.31187 44.6921-4.48435 6.3603-7.53973-4.539-30.35506-4.539-30.35506" fill="none" opacity=".5473" stroke="#680101" stroke-width="2.48303"/>
<path d="m-13316.103-8764.2451c0,100.8725-87.224,182.6459-194.822,182.6459s-194.822-81.7734-194.822-182.6459 87.225-182.6459 194.822-182.6459 194.822,81.7733 194.822,182.6459z" fill="url(#radialGradient29148)" transform="matrix(.11179,.00844,-.00901,.11924,-62.78511,318.71595)"/>
<path d="m-13316.103-8764.2451c0,100.8725-87.224,182.6459-194.822,182.6459s-194.822-81.7734-194.822-182.6459 87.225-182.6459 194.822-182.6459 194.822,81.7733 194.822,182.6459z" fill="url(#radialGradient29150)" transform="matrix(.08104,.00612,-.00653,.08645,-456.41387,-.03948)"/>
<path d="m-13316.103-8764.2451c0,100.8725-87.224,182.6459-194.822,182.6459s-194.822-81.7734-194.822-182.6459 87.225-182.6459 194.822-182.6459 194.822,81.7733 194.822,182.6459z" fill="url(#radialGradient29152)" transform="matrix(.05028,.0038,-.00405,.05363,-850.32818,-319.02584)"/>
<path d="m-1628.5431-875.26609 16.0628-2.7512c0,0-9.2282,5.15726-12.5691,5.10263-2.1566,0-3.4937-2.35143-3.4937-2.35143z" fill="#5a0101" opacity=".5144"/>
<path d="m-13316.103-8764.2451c0,100.8725-87.224,182.6459-194.822,182.6459s-194.822-81.7734-194.822-182.6459 87.225-182.6459 194.822-182.6459 194.822,81.7733 194.822,182.6459z" fill="url(#radialGradient29148)" transform="matrix(.11179,.00844,-.00901,.11924,-233.96711,318.60695)"/>
<path d="m-13316.103-8764.2451c0,100.8725-87.224,182.6459-194.822,182.6459s-194.822-81.7734-194.822-182.6459 87.225-182.6459 194.822-182.6459 194.822,81.7733 194.822,182.6459z" fill="url(#radialGradient29150)" transform="matrix(.08104,.00612,-.00653,.08645,-627.59587,-.14848)"/>
<path d="m-13316.103-8764.2451c0,100.8725-87.224,182.6459-194.822,182.6459s-194.822-81.7734-194.822-182.6459 87.225-182.6459 194.822-182.6459 194.822,81.7733 194.822,182.6459z" fill="url(#radialGradient29152)" transform="matrix(.05028,.0038,-.00405,.05363,-1021.51018,-319.13484)"/>
<g transform="matrix(12.41516,0,0,12.41516,-28215.27,25897.373)">
<path d="m2147.047-2157.2245 5.5174-.6417c0,0-2.9886.822-4.1679.876-.761.035-1.3495-.2343-1.3495-.2343z" fill="#4c0101"/>
<path d="m2147.6398-2157.1817 3.9533-.5019c0,0-2.8414.5812-3.3599.605-.3347.015-.5934-.1031-.5934-.1031z" filter="url(#filter4103)" opacity=".3992"/>
</g>
<g transform="matrix(12.41516,0,0,12.41516,-28211.723,25905.831)">
<path d="m2147.047-2157.2245 5.5174-.6417c0,0-2.9886.822-4.1679.876-.761.035-1.3495-.2343-1.3495-.2343z" fill="#4c0101"/>
<path d="m2147.6398-2157.1817 3.9533-.5019c0,0-2.8414.5812-3.3599.605-.3347.015-.5934-.1031-.5934-.1031z" filter="url(#filter4103)" opacity=".3992"/>
</g>
<g transform="matrix(12.41516,0,0,12.41516,-28211.45,25914.289)">
<path d="m2147.047-2157.2245 5.5174-.6417c0,0-2.9886.822-4.1679.876-.761.035-1.3495-.2343-1.3495-.2343z" fill="#4c0101"/>
<path d="m2147.6398-2157.1817 3.9533-.5019c0,0-2.8414.5812-3.3599.605-.3347.015-.5934-.1031-.5934-.1031z" filter="url(#filter4103)" opacity=".3992"/>
</g>
<g transform="matrix(12.41516,0,0,12.41516,-28215.27,25897.373)">
<path d="m2156.865-2157.128c-.2133-.9716-1.1989-1.6637-1.1306-1.1341 0,0 .018.2908.3308.6301 .2816.3154.8977.9501.7998.504z" fill="#960101" filter="url(#filter4189)" opacity=".6049"/>
<path d="m2156.8504-2157.1585c-.202-.9206-1.1358-1.5763-1.0711-1.0745 0,0 .017.2754.3134.5969 .2668.2988.8505.9002.7577.4776z" fill="url(#radialGradient29160)"/>
<path d="m2156.6778-2157.3373c-.1365-.622-.7674-1.0651-.7237-.726 0,0 .012.1861.2117.4033 .1803.2019.5747.6083.512.3227z" fill="url(#radialGradient29162)"/>
</g>
<path d="m2156.865-2157.128c-.2133-.9716-1.1989-1.6637-1.1306-1.1341 0,0 .018.2908.3308.6301 .2816.3154.8977.9501.7998.504z" fill="#960101" filter="url(#filter4189)" opacity=".6049" transform="matrix(-6.94507,.40308,.40308,6.94507,14139.771,13257.62)"/>
<path d="m-1709.223-854.60669c1.0318-6.47505 7.2528-11.40534 7.0057-7.89422 0,0-.01,1.91953-1.936,4.27184-1.7325,2.18273-5.5439,6.59477-5.0697,3.62238z" fill="url(#radialGradient30215)"/>
<path d="m-1708.0964-855.91804c.6973-4.37485 4.9003-7.70652 4.7335-5.33383 0,0-.01,1.29731-1.3077,2.88628-1.1708,1.47488-3.7461,4.45634-3.4258,2.44755z" fill="url(#radialGradient30212)"/>
<path d="m-1456.0679-843.4572c-9.3305-.41094-5.439,8.89546-3.373,9.50554 15.7365,2.95183 25.3638-2.63537 24.2464-9.77545-1.2253-7.44177-7.7336-11.48302-8.6335-6.53769-1.3484,3.44371-1.3687,4.04473-3.6542,5.18742-2.5598,1.27988-8.5857,1.63607-8.5857,1.61993z" fill="url(#radialGradient30209)"/>
<path d="m-1700.6553-846.75841c6.2449-1.0677 5.5757,5.10139 3.0877,6.10826-10.3381,3.33968-17.2981.4097-17.1602-4.49305 .1862-5.1138 4.2186-8.39512 5.2491-5.14359 1.2043,2.2012 1.2713,2.60345 2.9051,3.17703 1.8325.64559 5.9196.36004 5.9171.34763z" fill="url(#radialGradient30206)"/>
<path d="m2138.2261-2155.7789c-.9293.1292-1.6689.9696-1.7422,2.0313v.062l.3999.031c.067-.9688.8566-1.6981 1.742-1.625 .8553.071 1.4737.8544 1.4566,1.7813l.4284.031c.052-1.188-.7659-2.2224-1.8563-2.3125-.1387-.012-.2958-.019-.4284,0z" filter="url(#filter4103)" transform="matrix(12.18644,0,0,11.04461,-27726.611,22944.137)"/>
<path d="m-1669.4895-868.3732c-12.6225,1.60404-22.6701,12.03774-23.6658,25.21891v.76974l5.4317.38487c.9063-12.0278 11.6379-21.08218 23.6657-20.17463 11.6181.88148 20.0195,10.60751 19.7873,22.11512l5.819.38487c.7201-14.74921-10.4039-27.59144-25.2177-28.71005-1.8834-.14898-4.0175-.23589-5.8202,0z" fill="url(#radialGradient30202)"/>
<path d="m2152.137-2155.71c-.9385.1204-1.7107.9042-1.7844,1.8942-.017.2401.028.4796.087.6993h.4029c-.067-.2019-.1031-.4444-.087-.6702 .067-.9034.8633-1.5836 1.7556-1.5153s1.5639.8742 1.4965,1.7776c-.014.1927-.071.3574-.1438.5245h.4317c.052-.1578.1021-.3219.1151-.4954 .085-1.1315-.7533-2.1292-1.8707-2.2147-.1398-.011-.269-.017-.403,0z" filter="url(#filter4103)" opacity=".8354" transform="matrix(12.10266,0,0,11.66213,-27542.976,24274.058)"/>
<path d="m-1496.4719-870.38073c-12.651,1.6028-23.0599,12.03774-24.0543,25.21891-.2359,3.1969.3724,6.38512 1.167,9.31137h5.4316c-.9063-2.68912-1.3905-5.91706-1.167-8.92402 .9063-12.0278 11.638-21.08341 23.6658-20.17463s21.0834,11.63921 20.1746,23.66702c-.1986,2.56621-.956,4.75873-1.9393,6.98352h5.819c.7077-2.10064 1.3769-4.28571 1.5519-6.59617 1.1422-15.06455-10.1543-28.34877-25.2176-29.486-1.8834-.14898-3.6253-.22347-5.4317,0z" fill="url(#radialGradient30198)"/>
<path d="m-1637.9248-843.58011v3.01067l-2.4633,2.73705 120.9743,3.55806-1.9159-1.91591-1.6422-4.65283z" fill="url(#linearGradient30195)"/>
<path d="m-1626.6026-874.98799 10.3021-1.64998c0,0-6.8246,2.87411-8.5242,2.8468-1.0926,0-1.7779-1.19186-1.7779-1.19186z" opacity=".3004"/>
<path d="m-1675.0093-873.29705c0,0-2.4892,2.76238-4.061,3.70469-5.8041,3.47748-13.5164,4.65568-19.1355,6.77122-3.4638,1.30484-3.4203-3.17828-3.4203-3.17828" fill="none" opacity=".2346" stroke="#680101" stroke-width=".85653"/>
<path class="fil51" d="m-1615.7677-918.47958c3.2945-.47144 6.411-.56929 9.7055-1.47815-.596-.25535-1.0595-.97697-1.5816-1.48742-.1139-.0925-.2258-.18774-.336-.28558v-.002-8e-005c-.7139-.63394-1.3523-1.37941-1.9097-2.23641-1.1337-1.74292-2.2395-4.23082-2.6225-7.38846-1.1669-9.62323-.1775-12.04746-.7145-13.89478 5.1963-3.2972 13.8847-3.7906 18.5917,7.86875 1.6917,4.19034 1.0061,9.68256-.7606,13.63411l.3205-.0573c4.7795-1.76111 9.5795-3.9999 14.6507-8.4845-7.0661-1.33762-10.4886-16.70317-19.9913-19.42978-6.2573-1.79545-11.9775-.78292-17.8667,3.83109-4.5383,9.0496-4.9649,19.19368 2.5174,29.41086z" fill="url(#radialGradient30317)" fill-rule="evenodd"/>
<path d="m-1596.3972-926.72573c-1.2533.153-2.1102.017-2.875.34375-.6022.25723-.7373.49501-1.3437.6875-.8889.2822-2.0742.69427-3.2188,1.4375 2.5813-.0823 5.0985-.73441 7.4375-2.46875z" fill="url(#radialGradient31345)" fill-rule="evenodd"/>
<path d="m-1603.8475-924.26515c2.5813-.0823 5.1038-.74325 7.4428-2.47759 0,0-.9538,2.1043-2.692,2.75899s-4.7508-.2814-4.7508-.2814z" fill="url(#radialGradient31342)"/>
<g transform="matrix(.99988,.01547,-.01547,.99988,-14.20511,23.05805)">
<path d="m-1578.0393-887.81471c0,0 4.6321-37.4615 13.7957-36.50305 29.9404,3.12738 53.5044,23.91284 53.5044,23.91284z" fill="url(#radialGradient31351)" opacity=".4239"/>
<path d="m-1564.9056-923.57865c.2111-2.3117 28.4779,5.36831 51.3243,21.76625-35.1622-21.24481-51.5316-19.45455-51.3243-21.76625z" fill="#fff" opacity=".1235"/>
</g>
</g>
</svg>
